<svg xmlns="http://www.w3.org/2000/svg" viewBox="0 0 750 500"><g id="freepik--character-3--inject-5"><path d="M517.25,208.69l-6.18,11.19-3.79-30.42a12.26,12.26,0,0,1,1.26-6.4,13.3,13.3,0,0,1,1.54-2.47,13.45,13.45,0,0,1,2.65-2.49c1-.55.8-2-.19-2.1s-3.7,1.35-5.83,4.26-2.36-2.69-2.48-4.73-.78-8.33-1.43-8.77c-1-.65-1.86.28-1.69,2.31s.23,8.18-.84,8.22-1.53-10.36-1.53-10.36.26-2.25-1-2.25c-2.25,0-.95,11-.8,12,.11.72-1.06.8-1.13,0s-.22-10.39-2.51-10.4c-1.75,0,1,9.05-.08,11.08s-1.38-7.1-3.06-7.05c-.62,0-1.09.13-.15,5.33.5,2.8,2.34,6.82,2.91,12.28l.15,1.42c.1,6.8,1.6,27.29,7.79,42.89a12.63,12.63,0,0,0,22.23,2.25c3.81-5.73,9.82-20.72,9.82-20.72Z" style="fill:#b78876"></path><path d="M496.28,185.15s.35,0,.89.24a3.18,3.18,0,0,1,1.73,1.43l.21.38.12-.43a5.49,5.49,0,0,1,.83-1.66,6.09,6.09,0,0,1,2.87-2.11c.88-.32,1.49-.3,1.48-.37a2.81,2.81,0,0,0-1.56.11,5.66,5.66,0,0,0-3.1,2.14,5.24,5.24,0,0,0-.87,1.8l.34-.05a3.27,3.27,0,0,0-2-1.46A1.55,1.55,0,0,0,496.28,185.15Z" style="fill:#a36957"></path><path d="M537.71,133.19c-2.89.66-5.57,2.19-5.84,5.15s.1,6.08-1.14,8.78c-1.4,3-4.74,5.28-4.85,8.62-.07,2,1.14,3.95,1.08,6-.09,3.34-3.51,5.87-3.69,9.22-.12,2.4,1.48,4.71,1.09,7.09-.3,1.86-1.74,3.31-2.35,5.09-1.21,3.54,1.22,7.43,4.38,9.42a14.36,14.36,0,0,0,20.92-6.68c1.75-4.25,1.37-9,1-13.62q-1.78-21.43-2.65-42.91" style="fill:#263238"></path><path d="M598.32,450s-28.53-89.62-29.11-92.42c-.52-2.54,9.86-64.61,11.16-80.68l-36.69,1.37v.27l-15.6.86,14.49,181.33,16-.28-1.34-63.16c10.41,28,26.41,58.77,26.41,58.77Z" style="fill:#b78876"></path><path d="M558,418.28c0-.54-.21-19.61-.21-19.61-.21,1.14-6.47-16.56-6.32-17.64C551.5,380.47,558,418.28,558,418.28Z" style="fill:#a36957"></path><path d="M550.71,372.65a3.72,3.72,0,0,0-.11,1.07,26.24,26.24,0,0,0,0,2.92c0,.62.09,1.3.17,2s.19,1.5.36,2.3a38.84,38.84,0,0,0,1.38,5.14c1.22,3.56,2.58,6.69,3.54,8.95l1.17,2.67a4.72,4.72,0,0,0,.5.95,3.6,3.6,0,0,0-.3-1c-.22-.65-.57-1.59-1-2.74-.86-2.3-2.16-5.45-3.37-9a44,44,0,0,1-1.41-5.06c-.17-.79-.29-1.55-.4-2.26s-.19-1.38-.23-2c-.12-1.21-.17-2.21-.2-2.89A4.92,4.92,0,0,0,550.71,372.65Z" style="fill:#a36957"></path><path d="M541.73,461.43v-1.58l17.3-.76.05,6.55-1.07.07c-4.75.28-24.16,1.08-27.34.12C527.12,464.77,541.73,461.43,541.73,461.43Z" style="fill:#455a64"></path><path d="M559.31,465.24l-.3,0-.85.06-3.12.14c-2.65.11-6.3.2-10.33.22s-7.69,0-10.33-.13l-3.13-.11-.85-.05-.3,0h1.15l3.13.06c2.64,0,6.3.08,10.33.06s7.68-.09,10.32-.15l3.13-.08.85,0Z" style="fill:#263238"></path><path d="M536.12,465.8a6.74,6.74,0,0,0-.58-1.49,7.6,7.6,0,0,0-1.08-1.2,2.27,2.27,0,0,1,1.25,1.09A2.23,2.23,0,0,1,536.12,465.8Z" style="fill:#263238"></path><path d="M541.19,463.2s-.29-.26-.54-.66-.42-.74-.37-.77.29.27.54.66S541.24,463.17,541.19,463.2Z" style="fill:#263238"></path><path d="M542.58,462.46s-.31-.14-.6-.4-.51-.52-.47-.56.31.14.61.4S542.62,462.42,542.58,462.46Z" style="fill:#263238"></path><path d="M543.46,460.83a2,2,0,0,1-.9.12,2,2,0,0,1-.9-.09,2,2,0,0,1,.9-.12A2.31,2.31,0,0,1,543.46,460.83Z" style="fill:#263238"></path><path d="M543.76,459.69a1.74,1.74,0,0,1-1,.29,1.79,1.79,0,0,1-1-.13,5.66,5.66,0,0,1,1-.08A5.08,5.08,0,0,1,543.76,459.69Z" style="fill:#263238"></path><path d="M540.6,461.7a2.89,2.89,0,0,1-1.1,0,7,7,0,0,1-1.18-.25,3.42,3.42,0,0,1-.67-.28.57.57,0,0,1-.28-.34.44.44,0,0,1,.17-.45,2,2,0,0,1,2.51.59,2.14,2.14,0,0,1,.36.74.71.71,0,0,1,0,.29,3.37,3.37,0,0,0-.51-.94,2,2,0,0,0-.94-.61,1.73,1.73,0,0,0-1.32.1c-.18.13-.11.33.09.45a2.81,2.81,0,0,0,.62.26,6.16,6.16,0,0,0,1.14.29C540.18,461.67,540.6,461.67,540.6,461.7Z" style="fill:#263238"></path><path d="M540.32,461.76a1.07,1.07,0,0,1-.13-.77,1.72,1.72,0,0,1,.3-.81,1.1,1.1,0,0,1,.92-.56.44.44,0,0,1,.34.51,1.2,1.2,0,0,1-.19.49,3.18,3.18,0,0,1-.52.67,1.58,1.58,0,0,1-.63.45s.22-.2.52-.55a3.47,3.47,0,0,0,.46-.66c.16-.24.26-.66,0-.71s-.56.25-.73.47a2,2,0,0,0-.31.72A3.44,3.44,0,0,0,540.32,461.76Z" style="fill:#263238"></path><path d="M558.94,460.53s-.49,0-1.27.05a5.44,5.44,0,0,0-4.5,3.61c-.26.74-.28,1.24-.32,1.23a1,1,0,0,1,0-.35,5.23,5.23,0,0,1,.18-.93,5.26,5.26,0,0,1,4.62-3.71,4.51,4.51,0,0,1,1,0A1.26,1.26,0,0,1,558.94,460.53Z" style="fill:#263238"></path><path d="M550.66,463.87a10.33,10.33,0,0,1-2.52.24,9.9,9.9,0,0,1-2.51-.21c0-.06,1.13,0,2.51,0S550.65,463.81,550.66,463.87Z" style="fill:#263238"></path><path d="M554,463.83s-.09.24-.21.5-.17.49-.23.48-.09-.27,0-.57S554,463.79,554,463.83Z" style="fill:#263238"></path><path d="M555.29,462.25s-.07.22-.24.4-.36.29-.4.25.07-.22.25-.4S555.25,462.21,555.29,462.25Z" style="fill:#263238"></path><path d="M557.11,461.52c0,.05-.24.05-.49.14s-.44.23-.48.19.09-.28.41-.38S557.13,461.46,557.11,461.52Z" style="fill:#263238"></path><path d="M558.4,461.17c0,.05-.07.14-.22.2s-.27.06-.29,0,.07-.14.22-.2S558.38,461.12,558.4,461.17Z" style="fill:#263238"></path><path d="M583.33,457.81l-.66-1.44,15.47-7.77,2.72,5.94-.94.51c-4.22,2.19-21.6,10.88-24.89,11.31C571.36,466.84,583.33,457.81,583.33,457.81Z" style="fill:#455a64"></path><path d="M600.92,454.08s-.08.06-.25.15l-.76.4-2.79,1.42c-2.37,1.17-5.66,2.76-9.33,4.43s-7,3.1-9.48,4.11l-2.9,1.17-.79.31a1,1,0,0,1-.29.09l.27-.13.78-.34,2.88-1.24c2.42-1,5.77-2.5,9.44-4.16s7-3.23,9.36-4.38l2.82-1.35.77-.36Z" style="fill:#263238"></path><path d="M580,464.09a6.65,6.65,0,0,0-1.15-1.12,6.5,6.5,0,0,0-1.46-.65,2.78,2.78,0,0,1,2.61,1.77Z" style="fill:#263238"></path><path d="M583.56,459.65a2.08,2.08,0,0,1-.76-.38c-.4-.26-.69-.51-.66-.55s.38.12.77.37S583.59,459.6,583.56,459.65Z" style="fill:#263238"></path><path d="M584.53,458.4c0,.05-.34,0-.72-.12s-.68-.26-.66-.32.34,0,.72.12S584.54,458.34,584.53,458.4Z" style="fill:#263238"></path><path d="M584.66,456.56a4.07,4.07,0,0,1-1.63.76c0-.06.32-.27.77-.48S584.63,456.5,584.66,456.56Z" style="fill:#263238"></path><path d="M584.46,455.39s-.28.4-.79.68a1.79,1.79,0,0,1-1,.3,5,5,0,0,1,.9-.49C584.06,455.62,584.42,455.34,584.46,455.39Z" style="fill:#263238"></path><path d="M582.41,458.52a3.24,3.24,0,0,1-1,.45,6.56,6.56,0,0,1-1.18.25,2.92,2.92,0,0,1-.73,0,.57.57,0,0,1-.39-.2.44.44,0,0,1,0-.47,2,2,0,0,1,2.53-.49,2,2,0,0,1,.63.52c.12.15.16.25.15.26a3.14,3.14,0,0,0-.84-.65,2,2,0,0,0-1.12-.17,1.73,1.73,0,0,0-1.16.63c-.11.19,0,.35.27.37a3.76,3.76,0,0,0,.67,0,7.69,7.69,0,0,0,1.16-.2C582,458.66,582.4,458.49,582.41,458.52Z" style="fill:#263238"></path><path d="M582.17,458.69a1.18,1.18,0,0,1-.43-.65,1.71,1.71,0,0,1-.06-.86,1.11,1.11,0,0,1,.61-.89c.24-.08.82.42.86.6s-.29.09-.31.25a3.28,3.28,0,0,1-.2.82c-.17.46-.37.69-.39.67s.12-.27.25-.71a3.56,3.56,0,0,0,.15-.8c0-.28,0-.7-.31-.63s-.41.46-.47.73a1.84,1.84,0,0,0,0,.78A4.47,4.47,0,0,0,582.17,458.69Z" style="fill:#263238"></path><path d="M598.66,449.94s-.47.16-1.14.57a5.34,5.34,0,0,0-2.62,5.13,10.91,10.91,0,0,0,.21,1.25s-.07-.1-.15-.31a4.85,4.85,0,0,1-.21-.93,5.23,5.23,0,0,1,2.7-5.27,4.27,4.27,0,0,1,.87-.37A1.14,1.14,0,0,1,598.66,449.94Z" style="fill:#263238"></path><path d="M592.47,456.38a9.73,9.73,0,0,1-2.2,1.24,9.44,9.44,0,0,1-2.38.84c0-.06,1-.45,2.3-1S592.44,456.32,592.47,456.38Z" style="fill:#263238"></path><path d="M595.53,455c.05,0,0,.26,0,.54s0,.52,0,.54-.19-.21-.19-.54S595.48,454.94,595.53,455Z" style="fill:#263238"></path><path d="M596,453c.06,0,0,.23-.06.46s-.2.42-.25.4,0-.23.06-.47S596,453,596,453Z" style="fill:#263238"></path><path d="M597.39,451.59c0,.06-.2.15-.39.33s-.3.39-.36.37,0-.29.22-.52S597.38,451.53,597.39,451.59Z" style="fill:#263238"></path><path d="M598.43,450.74s0,.16-.12.27-.23.17-.27.13,0-.16.12-.27S598.39,450.7,598.43,450.74Z" style="fill:#263238"></path><path d="M574.77,246.33l-.16-30.48,18.72-3.45s-2-9-4.59-17.66c-2-6.81-6.3-9.7-11.51-12.24v-.09l-.45-.12a42.33,42.33,0,0,0-13.55-3.54l-18.16.21s-13.88-1.73-21.56,8.16c-3,3.81-12.11,29.89-12.11,29.89l21.8,10.5-2.07-14.46s.41,10.48,1.75,13.8c.74,1.85,2.9,7.6,2.9,7.6l-.28,17.34Z" style="fill:#2ECC72"></path><path d="M535.78,234.45a4.31,4.31,0,0,1-.43-1c-.25-.64-.58-1.58-1-2.75a83,83,0,0,1-2.43-9.3,66.16,66.16,0,0,1-1.2-9.54c-.06-1.23-.08-2.23-.06-2.92a4.55,4.55,0,0,1,.07-1.07c.09,0,.14,1.52.35,4a88.54,88.54,0,0,0,1.35,9.47c.73,3.66,1.61,6.93,2.28,9.29l.79,2.79A4.42,4.42,0,0,1,535.78,234.45Z" style="fill:#263238"></path><path d="M542.2,246.49a5,5,0,0,1-.88-2,4.72,4.72,0,0,1-.38-2.17c.14,0,.53.87.88,2A4.75,4.75,0,0,1,542.2,246.49Z" style="fill:#263238"></path><path d="M544.4,246.33a6.2,6.2,0,0,1-.58-3.06,6.27,6.27,0,0,1,.49-3.08,19.37,19.37,0,0,1,0,3.07A19.14,19.14,0,0,1,544.4,246.33Z" style="fill:#263238"></path><path d="M533.64,228c-.06.12-5.13-2.28-11.33-5.38s-11.16-5.7-11.1-5.83,5.14,2.27,11.33,5.37S533.71,227.86,533.64,228Z" style="fill:#263238"></path><path d="M588.28,192.73c-.24.3-1.19-.16-2.85-.5a14.64,14.64,0,0,0-7,.35c-2.86.79-6,2.67-9.67,5a55.22,55.22,0,0,1-6.2,3.56,21.34,21.34,0,0,1-8,2.14,22.8,22.8,0,0,1-8.13-1.18,63.64,63.64,0,0,1-6.61-2.63c-2-.9-3.83-1.75-5.53-2.37a30.26,30.26,0,0,0-4.85-1.34,16.52,16.52,0,0,0-7.08.07c-1.66.41-2.62.86-2.87.56s.33-1.28,2-2.41a14.21,14.21,0,0,1,8.28-1.89,27.31,27.31,0,0,1,5.74.89,61.41,61.41,0,0,1,6.09,2c4.07,1.53,8.39,3.29,12.64,3.05s8.23-2.52,12-4.62,7.71-4.06,11.4-4.53a13.29,13.29,0,0,1,8.46,1.37C588,191.42,588.5,192.49,588.28,192.73Z" style="fill:#fafafa"></path><path d="M574.86,221.17c-.24.28-.9.16-2,0a25.67,25.67,0,0,0-4.37-.4,9,9,0,0,0-2.64.36l-.27.1-.37.15-.77.34c-.52.24-1,.51-1.62.8-1.12.59-2.34,1.28-3.74,2a27.57,27.57,0,0,1-4.63,1.74A26.68,26.68,0,0,1,545,227a24.31,24.31,0,0,1-7.43-1.92c-4-1.81-5.78-3.94-5.4-4.49s2.77.26,6.52,1a32.63,32.63,0,0,0,14.42-.38,29.93,29.93,0,0,0,3.87-1.35c1.26-.54,2.55-1.15,3.86-1.68.66-.26,1.33-.51,2-.72.34-.11.68-.2,1-.29l.51-.13.6-.11a11,11,0,0,1,4,.2,11.68,11.68,0,0,1,4.84,2.24C574.79,220.17,575.08,220.91,574.86,221.17Z" style="fill:#fafafa"></path><path d="M574.86,231.27c-.15,0-.3-5.65-.34-12.63s0-12.64.18-12.64.3,5.65.34,12.63S575,231.27,574.86,231.27Z" style="fill:#263238"></path><path d="M574.77,246.33l-.16-30.48,18.72-3.45s-2-9-4.59-17.66c-2-6.81-6.3-9.7-11.51-12.24v-.09l-.45-.12a42.33,42.33,0,0,0-13.55-3.54l-18.16.21s-13.88-1.73-21.56,8.16c-3,3.81-12.11,29.89-12.11,29.89l21.8,10.5-2.07-14.46s.41,10.48,1.75,13.8c.74,1.85,2.9,7.6,2.9,7.6l-.28,17.34Z" style="fill:#2ECC72"></path><path d="M535.78,234.45a4.31,4.31,0,0,1-.43-1c-.25-.64-.58-1.58-1-2.75a83,83,0,0,1-2.43-9.3,66.16,66.16,0,0,1-1.2-9.54c-.06-1.23-.08-2.23-.06-2.92a4.55,4.55,0,0,1,.07-1.07c.09,0,.14,1.52.35,4a88.54,88.54,0,0,0,1.35,9.47c.73,3.66,1.61,6.93,2.28,9.29l.79,2.79A4.42,4.42,0,0,1,535.78,234.45Z" style="fill:#263238"></path><path d="M542.2,246.49a5,5,0,0,1-.88-2,4.72,4.72,0,0,1-.38-2.17c.14,0,.53.87.88,2A4.75,4.75,0,0,1,542.2,246.49Z" style="fill:#263238"></path><path d="M544.4,246.33a6.2,6.2,0,0,1-.58-3.06,6.27,6.27,0,0,1,.49-3.08,19.37,19.37,0,0,1,0,3.07A19.14,19.14,0,0,1,544.4,246.33Z" style="fill:#263238"></path><path d="M533.64,228c-.06.12-5.13-2.28-11.33-5.38s-11.16-5.7-11.1-5.83,5.14,2.27,11.33,5.37S533.71,227.86,533.64,228Z" style="fill:#263238"></path><path d="M588.28,192.73c-.24.3-1.19-.16-2.85-.5a14.64,14.64,0,0,0-7,.35c-2.86.79-6,2.67-9.67,5a55.22,55.22,0,0,1-6.2,3.56,21.34,21.34,0,0,1-8,2.14,22.8,22.8,0,0,1-8.13-1.18,63.64,63.64,0,0,1-6.61-2.63c-2-.9-3.83-1.75-5.53-2.37a30.26,30.26,0,0,0-4.85-1.34,16.52,16.52,0,0,0-7.08.07c-1.66.41-2.62.86-2.87.56s.33-1.28,2-2.41a14.21,14.21,0,0,1,8.28-1.89,27.31,27.31,0,0,1,5.74.89,61.41,61.41,0,0,1,6.09,2c4.07,1.53,8.39,3.29,12.64,3.05s8.23-2.52,12-4.62,7.71-4.06,11.4-4.53a13.29,13.29,0,0,1,8.46,1.37C588,191.42,588.5,192.49,588.28,192.73Z" style="fill:#fafafa"></path><path d="M574.86,221.17c-.24.28-.9.16-2,0a25.67,25.67,0,0,0-4.37-.4,9,9,0,0,0-2.64.36l-.27.1-.37.15-.77.34c-.52.24-1,.51-1.62.8-1.12.59-2.34,1.28-3.74,2a27.57,27.57,0,0,1-4.63,1.74A26.68,26.68,0,0,1,545,227a24.31,24.31,0,0,1-7.43-1.92c-4-1.81-5.78-3.94-5.4-4.49s2.77.26,6.52,1a32.63,32.63,0,0,0,14.42-.38,29.93,29.93,0,0,0,3.87-1.35c1.26-.54,2.55-1.15,3.86-1.68.66-.26,1.33-.51,2-.72.34-.11.68-.2,1-.29l.51-.13.6-.11a11,11,0,0,1,4,.2,11.68,11.68,0,0,1,4.84,2.24C574.79,220.17,575.08,220.91,574.86,221.17Z" style="fill:#fafafa"></path><path d="M586.53,278.55c-.15-9.9-8.54-33.46-8.54-33.46l-42.41,1.79S524.76,269.8,525.14,293s7,86.08,7,86.08h51.31L582,332C581.42,316.78,586.82,297.79,586.53,278.55Z" style="fill:#263238"></path><path d="M579.78,250.34a3.16,3.16,0,0,1-.13.33l-.41,1-1.64,3.61c-1.44,3.16-3.51,7.67-6.07,13.24-5.11,11.19-12.18,26.66-19.15,44.09-3.45,8.72-6.5,17.13-9.09,24.84-1.23,3.87-2.46,7.54-3.44,11-.5,1.73-1,3.41-1.46,5s-.85,3.18-1.24,4.66c-.83,3-1.42,5.68-2,8.06-.28,1.19-.54,2.29-.77,3.31s-.4,2-.58,2.81c-.34,1.66-.61,3-.8,3.87-.1.43-.17.76-.23,1a1.55,1.55,0,0,1-.09.34s1.09-7.55,4.1-19.49c.39-1.49.79-3.05,1.21-4.68s.94-3.29,1.44-5c1-3.49,2.18-7.16,3.4-11,2.56-7.73,5.6-16.15,9.06-24.89,7-17.44,14.1-32.89,19.3-44l6.22-13.18c.74-1.53,1.32-2.72,1.72-3.57.2-.38.35-.69.46-.92A1.73,1.73,0,0,1,579.78,250.34Z" style="fill:#455a64"></path><path d="M570.84,379a3.62,3.62,0,0,1-.32-.65l-.84-1.89c-.72-1.65-1.7-4.06-2.85-7.06a213.24,213.24,0,0,1-12.17-48.63c-.4-3.19-.67-5.78-.81-7.57-.06-.85-.11-1.54-.15-2.06a3.68,3.68,0,0,1,0-.73,3.61,3.61,0,0,1,.12.72c.07.52.15,1.2.26,2,.19,1.78.52,4.36,1,7.54a237.72,237.72,0,0,0,12.14,48.55c1.1,3,2,5.44,2.7,7.11l.74,1.93A3.07,3.07,0,0,1,570.84,379Z" style="fill:#455a64"></path><path d="M574.86,231.27c-.15,0-.3-5.65-.34-12.63s0-12.64.18-12.64.3,5.65.34,12.63S575,231.27,574.86,231.27Z" style="fill:#263238"></path><path d="M542.58,182.36c.12-5,.14-10.23.14-10.23s-6.38-1.23-7.5-9.63c-.8-6.08.19-16.57.72-21.3a8.56,8.56,0,0,1,1.77-4.32h0c9.34-3.52,18.45-1.54,24.84,6h0L561,183.34c-.19,4.7-4.37,8.28-9.4,8h0C546.5,191.14,542.47,187.11,542.58,182.36Z" style="fill:#b78876"></path><path d="M537.72,150.41a1.07,1.07,0,0,0,1,1.11,1,1,0,0,0,1.14-.94,1.07,1.07,0,0,0-1-1.11A1,1,0,0,0,537.72,150.41Z" style="fill:#263238"></path><path d="M536.25,149.29c.13.15,1-.43,2.11-.4s2,.63,2.12.49-.07-.31-.43-.59a3,3,0,0,0-1.69-.57,2.83,2.83,0,0,0-1.69.5C536.31,149,536.18,149.23,536.25,149.29Z" style="fill:#263238"></path><path d="M549.64,151.08a1.06,1.06,0,0,0,1,1.11,1,1,0,0,0,1.14-.94,1.08,1.08,0,0,0-1-1.11A1,1,0,0,0,549.64,151.08Z" style="fill:#263238"></path><path d="M548.29,150c.13.14,1-.44,2.11-.41s2,.63,2.12.5-.07-.32-.43-.6a3,3,0,0,0-1.69-.57,2.9,2.9,0,0,0-1.69.5C548.35,149.71,548.23,150,548.29,150Z" style="fill:#263238"></path><path d="M543.88,158.48a8.51,8.51,0,0,0-1.87-.38c-.3,0-.57-.11-.62-.31a1.56,1.56,0,0,1,.22-.87l.93-2.22a37.62,37.62,0,0,0,2.11-5.83,38.68,38.68,0,0,0-2.57,5.64c-.31.79-.61,1.53-.9,2.24a1.72,1.72,0,0,0-.18,1.16.75.75,0,0,0,.47.44,2.05,2.05,0,0,0,.5.08A6.94,6.94,0,0,0,543.88,158.48Z" style="fill:#263238"></path><path d="M542.72,172.13a21.29,21.29,0,0,0,11.29-2.7s-2.87,5.68-11.22,4.68Z" style="fill:#a36957"></path><path d="M558.68,153.58c-1,2.31-3.42,4.09-3.09,6.58.22,1.6,1.25,3.1,1,4.71-.25,2-2.35,3.43-2.65,5.44-.36,2.48,2,4.4,3,6.71,1.4,3.36-.39,7.14-.43,10.78A11.57,11.57,0,0,0,566.79,199c2.25.18,4.78-.5,6-2.43,1-1.59.77-3.61,1.35-5.38.85-2.64,3.36-4.57,3.89-7.29,1-5-5-9.06-4.63-14.1.17-2.15,1.5-4,2.06-6.11a8.94,8.94,0,0,0-1.76-8c-1.47-1.76-3.62-2.92-4.88-4.84-1.43-2.18-1.48-5-2-7.49a18.87,18.87,0,0,0-30-11.06s-1.43,6.49,5.23,7.57,9.75-.17,10.5,2.5a7.07,7.07,0,0,0,2,6.1C557.25,151.53,559.84,150.91,558.68,153.58Z" style="fill:#263238"></path><path d="M545.16,161.5a1.58,1.58,0,0,1,2.86-1.08,1.12,1.12,0,0,1,.17,1,1.31,1.31,0,0,1-.56.58,2.06,2.06,0,0,1-1.59.33,1.2,1.2,0,0,1-.92-1.21" style="fill:#a36957"></path><path d="M547.77,159c.07,0,.11.28,0,.7a2.86,2.86,0,0,1-1,1.37,2.78,2.78,0,0,1-1.61.55c-.44,0-.69-.12-.68-.19a6.87,6.87,0,0,0,2-.78C547.39,160,547.63,159,547.77,159Z" style="fill:#263238"></path><path d="M550,155.61c-.1.1-.32,0-.49-.12s-.22-.39-.12-.49.32-.05.49.12S550.07,155.51,550,155.61Z" style="fill:#a36957"></path><path d="M551.59,154.58c.12.08.13.29,0,.48s-.3.29-.43.21-.13-.28,0-.47S551.46,154.51,551.59,154.58Z" style="fill:#a36957"></path><path d="M553.37,155.43c-.12.08-.32,0-.44-.18s-.13-.39,0-.47.31,0,.44.18S553.48,155.35,553.37,155.43Z" style="fill:#a36957"></path><path d="M551.61,156.82a.32.32,0,0,1-.48-.41.32.32,0,0,1,.48.41Z" style="fill:#a36957"></path><path d="M537,155.76c-.08.12-.37.06-.53-.22s-.06-.55.08-.56.27.14.37.3A.49.49,0,0,1,537,155.76Z" style="fill:#a36957"></path><path d="M538.28,155.34c-.13,0-.18-.26-.11-.49s.25-.37.39-.32.18.27.11.49S538.42,155.39,538.28,155.34Z" style="fill:#a36957"></path><path d="M539.44,155.84c-.12-.07-.11-.34,0-.61s.37-.43.49-.36.11.34,0,.61S539.57,155.91,539.44,155.84Z" style="fill:#a36957"></path><path d="M537.69,157.66c-.11.1-.36,0-.48-.3s0-.54.11-.55.28.15.37.35S537.8,157.57,537.69,157.66Z" style="fill:#a36957"></path><path d="M551.2,146.56c-.12.27-1.09.11-2.24.12s-2.12.17-2.24-.1.84-.94,2.24-.94S551.32,146.31,551.2,146.56Z" style="fill:#263238"></path><path d="M538.85,147c-.05.28-.78.38-1.63.34s-1.56-.24-1.58-.53.72-.57,1.64-.51S538.9,146.74,538.85,147Z" style="fill:#263238"></path><path d="M527.85,265.72c-.18-2.21,9-3.43,9.75-3.59s.56-1.28-.13-1.1c-1,.27-11.4,2.77-11.6.6-.12-1.2,2.06-1.21,2.06-1.21s9.92-1.62,9.78-2.64-6-.27-7.94.12-2.9-.37-2.36-1.37c.36-.68,6.33-2,8.27-2.38S543,253,540,251.23s-4.61-4.17-4.6-5.14a1.08,1.08,0,0,1,2-.43,12.54,12.54,0,0,0,2.62,2.28,8.57,8.57,0,0,0,2.59,1.23c1,.28,1.89.48,2.64.63C550.43,248.17,575,237,575,237l.05-21.18,16.8-3.1.34,20.62a20.26,20.26,0,0,1-13.62,19.47l-31.21,10.84,0-.05a101.27,101.27,0,0,1-10.24,4.22c-4.9,1.49-5,1.05-5.12.45-.2-1.61,8.52-2.94,6.48-3.74S528,267.42,527.85,265.72Z" style="fill:#b78876"></path></g><g id="freepik--Plant--inject-5"><path d="M286.7,428.74c-1.72,2.46-5.08,1.64-6.63.14s-2.22-3.68-2.81-5.76c-1.37-4.75-2.75-9.74-1.73-14.57a8.07,8.07,0,0,1,1.86-4,4.23,4.23,0,0,1,4-1.33c1.69.45,2.74,2.1,3.5,3.68a34.78,34.78,0,0,1,3.43,14.9,12,12,0,0,1-1.63,6.91" style="fill:#2ECC72"></path><g style="opacity:0.2"><path d="M286.7,428.74c-1.72,2.46-5.08,1.64-6.63.14s-2.22-3.68-2.81-5.76c-1.37-4.75-2.75-9.74-1.73-14.57a8.07,8.07,0,0,1,1.86-4,4.23,4.23,0,0,1,4-1.33c1.69.45,2.74,2.1,3.5,3.68a34.78,34.78,0,0,1,3.43,14.9,12,12,0,0,1-1.63,6.91"></path></g><path d="M280.24,441.22a14.93,14.93,0,0,0-9.28-1.13,7.68,7.68,0,0,0-4.58,2.05c-1.15,1.26-1.37,3.48-.05,4.57a4.31,4.31,0,0,0,2.89.73c2.45,0,5.17-.46,7.13,1,1.12.84,1.86,2.24,3.2,2.66a3.18,3.18,0,0,0,3.48-1.55,5.44,5.44,0,0,0,.39-4A6.07,6.07,0,0,0,280.24,441.22Z" style="fill:#2ECC72"></path><path d="M291.44,432.27A9,9,0,0,1,290,424a15.92,15.92,0,0,1,4.89-7.09,26.3,26.3,0,0,1,8.76-5.16,9.19,9.19,0,0,1,3.93-.67,4.09,4.09,0,0,1,3.3,2c.93,1.75,0,3.88-.91,5.62a68.47,68.47,0,0,1-5.75,8.76c-1.72,2.22-3.7,4.41-6.32,5.41s-5.36.89-6.75-.93" style="fill:#2ECC72"></path><path d="M286.82,465.91a5,5,0,0,1-.16-1.12l-.3-3.05c-.14-1.29-.33-2.82-.68-4.49a35.92,35.92,0,0,0-1.63-5.29,19.73,19.73,0,0,0-2.7-4.78,10,10,0,0,0-3.42-2.84,9.36,9.36,0,0,0-2.88-.9,5.29,5.29,0,0,1-1.11-.16,5.2,5.2,0,0,1,1.13,0,8.66,8.66,0,0,1,3,.78,10.07,10.07,0,0,1,3.61,2.87,19,19,0,0,1,2.8,4.88,32.09,32.09,0,0,1,1.61,5.38,37.28,37.28,0,0,1,.6,4.54c.1,1.3.13,2.35.15,3.07A5.2,5.2,0,0,1,286.82,465.91Z" style="fill:#263238"></path><path d="M286.61,463.56a1.76,1.76,0,0,1,0-.52v-1.48c0-1.29,0-3.16-.06-5.46-.12-4.61-.52-11-1.28-18s-1.8-13.29-2.73-17.8c-.22-1.13-.44-2.15-.65-3s-.37-1.67-.54-2.29l-.34-1.44a1.69,1.69,0,0,1-.09-.52,4.24,4.24,0,0,1,.18.49c.11.37.25.85.43,1.42s.39,1.39.61,2.28.48,1.9.72,3a169.54,169.54,0,0,1,2.87,17.82c.77,7,1.11,13.39,1.14,18,0,2.31,0,4.18-.08,5.47,0,.6-.07,1.1-.09,1.49A2.24,2.24,0,0,1,286.61,463.56Z" style="fill:#263238"></path><path d="M286.58,451.26a9.87,9.87,0,0,1,0-1.56c.06-1,.19-2.44.47-4.2a56.87,56.87,0,0,1,1.37-6.13,55.17,55.17,0,0,1,2.56-7.25,38.88,38.88,0,0,1,7.53-11.72,19.65,19.65,0,0,1,1.77-1.64c.27-.23.51-.46.75-.64l.69-.48a9.49,9.49,0,0,1,1.31-.83,45.54,45.54,0,0,0-4.29,3.82,40.72,40.72,0,0,0-7.33,11.67,57.8,57.8,0,0,0-2.58,7.19,60.8,60.8,0,0,0-1.45,6.06c-.33,1.75-.51,3.18-.62,4.17A10.05,10.05,0,0,1,286.58,451.26Z" style="fill:#263238"></path></g></svg>
