<svg xmlns="http://www.w3.org/2000/svg" xmlns:xlink="http://www.w3.org/1999/xlink" version="1.1" id="Layer_1" x="0px" y="0px" viewBox="0 0 1080 1080" enable-background="new 0 0 1080 1080" xml:space="preserve">
<path xmlns="http://www.w3.org/2000/svg" opacity="0.05" fill="#2A94F4" d="M709.426,639.292c-2.298,0,80.426-179.244-8.426-153.747s-103.404,33.162-88.085-27.351  S581.53,257.511,508.754,352.489s-173.882,36.781-186.137,89.624c-12.255,52.844,45.957,65.099,9.191,88.078  c-36.766,22.979-13.787,109.101-13.787,109.101H709.426z"/>
<g xmlns="http://www.w3.org/2000/svg" opacity="0.8">
	<g opacity="0.5">
		<g>
			<g>
				<g>
					<path fill="#2A94F4" d="M674.382,562.083c0,0,9.982,39.748-13.984,50.614c-23.966,10.866-19.375-9.029-19.375-9.029       s-9.83-2.731,16.922-17.898C670.554,578.62,674.382,562.083,674.382,562.083z"/>
				</g>
			</g>
		</g>
	</g>
	<g opacity="0.8">
		<g>
			<g>
				<g>
					<path fill="#2A94F4" d="M737.145,565.552c0,0,4.913,34.647-40.443,49.624c-45.357,14.976-51.815,33.975-51.815,33.975       S643.529,572.358,737.145,565.552z"/>
				</g>
			</g>
		</g>
	</g>
	<g opacity="0.8">
		<g>
			<g>
				<g>
					<path fill="#2A94F4" d="M644.684,635.039c-13.449-5.133,18.518-32.658,43.087-31.915c24.568,0.743,41.217,9.836,57.673,5.994       C745.443,609.118,710.911,660.317,644.684,635.039z"/>
				</g>
			</g>
		</g>
	</g>
</g>
<g xmlns="http://www.w3.org/2000/svg">
	<g>
		<g>
			<path fill="#F7F7F7" d="M562.883,540.548c0.774-10.449,1.313-20.221,1.619-29.334c-2.522-1.336-5.552-2.897-7.977-4.048     c-7.507-3.574-17.965-8.387-24.676-11.466c-3.929-1.805-7.777-3.124-7.777-3.124s-26.821-2.57-28.998-2.433     c-0.686,0.04-4.039,1.208-8.436,2.885c-9.512,3.609-27.849,10.958-30.768,13.055c-4.282,3.065-19.602,78.165-20.01,83.266     c-0.397,4.954,20.837,11.732,40.501,16.926c-0.014,7.613-0.168,18.279-0.341,28.016c-0.026,1.664-0.058,3.296-0.089,4.88h86.044     c-0.115-1.672-0.217-3.322-0.301-4.88c-0.009-0.208-0.021-0.411-0.03-0.615c-0.328-6.595-1.61-18.406-1.283-29.909     c0,0-0.208-12.126,0.995-17.346C561.49,563.371,562.883,540.548,562.883,540.548z M453.778,584.702     c0.142-9.776,13.161-27.963,13.161-27.963s0.602-0.256,0.61-0.23c0.009,0.009,0.672-0.093,0.672-0.084     c0.014,0,2.022-1.915,2.035-1.915c0.478,1.739,4.791,26.3,5.849,40.598C463.878,592.705,453.707,589.365,453.778,584.702z"/>
		</g>
	</g>
	<g>
		<g>
			<path fill="#0B4870" d="M564.476,634.289c-0.566-4.074-1.102-8.145-1.584-12.13c0-0.021-0.009-0.035-0.009-0.058     c-0.155-1.327-0.314-2.637-0.465-3.941c-0.009-0.063-0.013-0.133-0.021-0.208c-0.629-5.489-1.15-10.755-1.526-15.576     c-0.283-3.694-0.027-7.304,0.482-10.834c1.496-24.654,2.239-50.649,2.239-50.649c0.787-10.639,1.238-20.584,1.539-29.852     c0,0-33.679-15.917-36.732-16.829c0,0,6.389,15.001,11.18,48.53c1.84,12.878,5.251,34.555,7.728,56.679v0.005     c1.34,11.939,3.853,24.101,5.764,34.863c0.292,1.664,0.571,3.292,0.827,4.88h11.272     C564.931,637.546,564.702,635.918,564.476,634.289z"/>
		</g>
	</g>
	<g>
		<g>
			<path fill="#0B4870" d="M508.404,594.687c1.327-12.466,2.522-24.906,1.946-31.723c-4.646-54.803-17.788-69.309-19.695-71.432     c-1.473,0.562-7.082,2.667-8.724,3.318c-8.989,3.543-27.313,10.038-29.781,11.812c-4.282,3.065-21.164,81.797-21.673,86.889     c-0.341,3.441,21.69,10.634,44.168,17.054c-0.208,6.162,0.375,14.854-1.673,23.932c-0.358,1.61-0.889,2.627-0.972,4.756     l31.333-0.123c0.19-1.619,0.39-3.242,0.589-4.88c0.597-4.896,1.221-9.913,1.84-15.244c9.397,2.433,15.784,3.999,15.784,3.999     s8.826-14.922,11.388-20.964C533.372,601.049,522.011,598.319,508.404,594.687z M467.886,575.823     c-0.297-11.219-0.244-19.047-0.244-19.047c1.11,3.844,2.646,14.829,3.999,25.747     C467.089,580.231,467.944,578.088,467.886,575.823z"/>
		</g>
	</g>
	<g>
		<g>
			<path fill="#FCCFA2" d="M493.667,491.001c0,0,3.411-6.446,2.469-24.747c-0.261-5.07,26.632,12.024,26.632,12.024     s-0.094,1.748-0.151,4.105c-0.03,0.982-0.048,2.057-0.048,3.163c0,0.305,0.004,0.61,0.004,0.915     c0.005,0.5,0.009,0.996,0.017,1.491c0.014,0.615,0.036,1.216,0.067,1.796c0.031,0.659,0.075,1.283,0.138,1.854     c0.11,1.106,0.761,3.057,0.995,3.592C525.024,498.04,503.736,498.203,493.667,491.001z"/>
		</g>
	</g>
	<g>
		<path fill="#00aef0" d="M516.213,502.641l4.956,6.659c0,0-2.903,3.888-8.06,1.018L516.213,502.641z"/>
	</g>
	<g>
		<path fill="#00aef0" d="M519.844,509.57c0,0,18.157,44.349,14.283,100.682l-5.727,10.395l-6.458-8.853    c0,0-1.042-74.816-6.196-102.401L519.844,509.57z"/>
	</g>
	<g>
		<path fill="#FCCFA2" d="M521.52,496.433l-5.307,6.208c0,0-8.517-1.65-11.017-6.099C502.696,492.094,521.52,496.433,521.52,496.433    z"/>
	</g>
	<g>
		<path fill="#0B4870" d="M522.737,491c0,0-0.616,4.732-6.523,11.642l6.448,8.663l3.49-17.972L522.737,491z"/>
	</g>
	<g>
		<path fill="#0B4870" d="M495.288,485.307c0,0,12.314,13.929,20.926,17.334l-4.005,9.905l-19.653-21.68L495.288,485.307z"/>
	</g>
	<g>
		<g>
			<path fill="#0B4870" d="M621.884,611.324c0,0-16.346-15.853-27.066-18.489c-4.956-1.22-11.484-8.062-17.688-16.104     c-2.044-2.648-4.05-5.428-5.958-8.179c-0.005-0.006-0.005-0.012-0.005-0.012c-7.61-10.988-13.574-21.521-13.574-21.521     s-22.495-26.362-4.443-38.114c0,0,7.736-0.167,11.979,2.137c4.363,2.369,13.67,21.793,15.248,25.233     c1.578,3.435,18.673,35.384,19.817,36.102c1.146,0.718,3.053,3.345,9.893,7.027c8.374,4.509,21.529,17.705,21.529,17.705     L621.884,611.324z"/>
		</g>
	</g>
	<g>
		<path fill="#FCCFA2" d="M543.421,629.671c0,0-2.283-0.092-3.262-0.619c0,0-1.708-1.096-2.969-1.801    c-0.401-0.224-0.756-0.408-0.997-0.504c-1.008-0.399-3.34-0.976-5.49-2.616c-2.149-1.638-9.157-8.193-9.157-8.193l4.529-6.962    l2.091-6.895c0,0,16.337,1.625,18.517,2.92c0.212,0.127,0.417,0.262,0.6,0.401c1.739,1.275,2.497,2.956,3.334,3.729    c0.305,0.286,3.15,3.332,2.991,4.567c-0.219,1.715-1.066,2.815-2.13,3.336c0,0-0.576,3.338-2.303,4.831    c0,0-0.433,3.098-3.107,4.342C546.068,626.207,545.277,629.301,543.421,629.671z"/>
	</g>
	<g>
		<path fill="#FCCFA2" d="M517.409,419.037c0,0,29.528-7.118,23.309,30.268c-6.221,37.385-13.303,40.42-31.29,32.966    c-17.988-7.454-16.738-31.366-17.81-43.067C490.545,427.503,507.962,419.583,517.409,419.037z"/>
	</g>
	<g>
		<path fill="#FCCFA2" d="M501.895,444.928c-0.438-3.284-6.958-4.394-7.409,0.545c-0.451,4.939,3.154,13.544,5.609,12.657    C502.549,457.242,502.5,449.456,501.895,444.928z"/>
	</g>
	<g>
		<path fill="#0B4870" d="M493.342,458.315c0,0,0.592-11.758,4.877-12.188c4.286-0.43,5.016,4.292,5.016,4.292l4.345,0.754    c0,0-1.521-10.277,2.737-12.139c4.259-1.862,27.843,5.261,31.238,2.188c3.395-3.072,20.946-23.484-3.449-30.095    c-9.38-2.542-20.255-21.106-35.863,8.511c0,0-11.301-6.309-12.64,1.63C488.264,429.207,490.588,452.467,493.342,458.315z"/>
	</g>
	<g>
		<path fill="#0B4870" d="M533.739,602.081l-12.192,20.962c0,0-32.299-8.322-39.835-10.448l17.228-20.505    C498.939,592.09,524.338,597.894,533.739,602.081z"/>
	</g>
</g>
<g xmlns="http://www.w3.org/2000/svg">
	<polygon fill="#00aef0" points="545.751,560.187 537.138,640.272 650.513,640.272 659.126,560.187  "/>
</g>
<g xmlns="http://www.w3.org/2000/svg">
	
		<rect x="528.116" y="633.067" transform="matrix(-1 -1.224647e-16 1.224647e-16 -1 1075.167 1273.3383)" fill="#00aef0" width="18.936" height="7.205"/>
</g>
<g xmlns="http://www.w3.org/2000/svg">
	<path fill="#FFFFFF" d="M591.454,596.812c-1.122,5.49,1.44,10.651,5.722,11.526c4.281,0.876,8.662-2.867,9.784-8.358   c1.122-5.491-1.439-10.653-5.721-11.527C596.958,587.578,592.578,591.32,591.454,596.812z"/>
</g>
<path xmlns="http://www.w3.org/2000/svg" fill="#D3D3D3" d="M806.444,662.191H273.556c-5.137,0-9.301-4.164-9.301-9.301v-4.298c0-5.137,4.164-9.301,9.301-9.301h532.888  c5.137,0,9.301,4.164,9.301,9.301v4.298C815.745,658.027,811.581,662.191,806.444,662.191z"/>
<g xmlns="http://www.w3.org/2000/svg">
	<rect x="360.404" y="594.277" fill="#00aef0" width="38.128" height="44.892"/>
	<g>
		<path fill="#00aef0" d="M361.511,635.255c-8.846,0-16.042-7.196-16.042-16.042s7.197-16.043,16.042-16.043    s16.042,7.197,16.042,16.043S370.356,635.255,361.511,635.255z M361.511,607.17c-6.64,0-12.042,5.402-12.042,12.043    c0,6.64,5.402,12.042,12.042,12.042s12.042-5.402,12.042-12.042C373.553,612.572,368.151,607.17,361.511,607.17z"/>
	</g>
</g>
<g xmlns="http://www.w3.org/2000/svg">
	<path fill="#D3D3D3" d="M385.426,589.479c-0.455,0-0.904-0.206-1.199-0.598c-0.171-0.227-4.178-5.629-2.989-11.576   c0.686-3.435,2.928-6.287,6.662-8.479c4.291-2.518,4.449-4.028,4.395-4.432c-0.163-1.223-2.704-2.402-4.028-2.763   c-0.8-0.217-1.271-1.041-1.055-1.841c0.218-0.798,1.046-1.271,1.841-1.054c0.586,0.159,5.735,1.658,6.216,5.261   c0.332,2.485-1.582,4.911-5.85,7.416c-2.965,1.739-4.728,3.919-5.239,6.479c-0.928,4.643,2.409,9.139,2.443,9.184   c0.499,0.661,0.367,1.602-0.295,2.101C386.058,589.38,385.741,589.479,385.426,589.479z"/>
</g>
<g xmlns="http://www.w3.org/2000/svg">
	<path fill="#D3D3D3" d="M371.254,588.189c-0.677,0-1.291-0.461-1.457-1.147c-0.194-0.806,0.3-1.616,1.106-1.811   c1.392-0.336,1.833-0.683,1.948-0.798c-0.115-0.486-1.124-1.907-7.327-5.501c-2.029-1.176-2.379-2.637-2.315-3.655   c0.267-4.294,9.067-8.352,11.758-9.493c0.766-0.324,1.644,0.033,1.967,0.795c0.323,0.763-0.032,1.643-0.795,1.967   c-4.715,2.003-9.833,5.26-9.936,6.917c-0.021,0.332,0.508,0.69,0.826,0.874c5.869,3.4,9.191,5.891,8.804,8.557   c-0.336,2.314-3.264,3.021-4.226,3.254C371.489,588.176,371.371,588.189,371.254,588.189z"/>
</g>
<g xmlns="http://www.w3.org/2000/svg">
	<path fill="#D3D3D3" d="M378.431,559.987c-0.366,0-0.733-0.133-1.021-0.402c-0.606-0.564-0.64-1.514-0.076-2.12   c0.813-0.88,2.377-3.144,2.012-4.513c-0.172-0.644-0.854-1.155-2.027-1.522c-2.338-0.73-3.051-2.112-3.236-3.143   c-0.686-3.803,5.16-8.558,6.339-9.472c0.655-0.509,1.596-0.389,2.104,0.265c0.508,0.654,0.389,1.596-0.265,2.104   c-2.716,2.111-5.464,5.255-5.226,6.57c0.074,0.408,0.771,0.684,1.18,0.812c2.77,0.866,3.722,2.446,4.032,3.62   c0.883,3.333-2.346,6.925-2.717,7.323C379.234,559.827,378.833,559.987,378.431,559.987z"/>
</g>
</svg>