<?xml version="1.0" encoding="UTF-8"?><!DOCTYPE svg PUBLIC "-//W3C//DTD SVG 1.1//EN" "http://www.w3.org/Graphics/SVG/1.1/DTD/svg11.dtd"><svg xmlns="http://www.w3.org/2000/svg" xmlns:xlink="http://www.w3.org/1999/xlink" version="1.1" id="Layer_1" x="0px" y="0px" width="64px" height="64px" viewBox="0 0 64 64" xml:space="preserve"><path fill="#B73091" d="M50 23.5l5-.9V42h-5V23.5zm8 0V42h5V22.6l-5 .9zM43 42h5V28h-5v14zM8.8 29.9c-.7 0-2.2-.1-2.2-1.5 0-1.6 2.2-1.6 3-1.6 1.4 0 3.3.4 4.6.8l1.5.5h.2v-4.5l-.2-.1c-1.6-.5-3.5-1.1-6.8-1.1C3.1 22.6 1 26 1 28.9c0 1.7.7 5.6 7.4 6.1.6 0 2.1.1 2.1 1.5 0 1.2-1.4 1.8-3.5 1.8-2.3 0-4-.6-6-1.1v4.6c2 .5 4.4.8 7.1.8 5.7 0 8.3-3.2 8.3-6.4 0-3.6-2.8-5.9-7.6-6.3zm31.1-2.2c-4.8.1-6.9 2.3-6.9 6.5V42h5v-6.3c0-2.5 0-3.6 3-3.7v-4.2c0-.2-1.1-.1-1.1-.1zM26 28c-.1 0-1 2.5-3 4.9V22.6l-5 1.1V42h5v-5.4c2 2.3 2.4 5.4 2.4 5.4h6.4c-.6-2-3.4-7.2-3.4-7.2 2.5-3.1 3.6-6.8 3.7-6.8H26zm19.5-1.5c1.4 0 2.5-1.1 2.5-2.5s-1.1-2.5-2.5-2.5S43 22.6 43 24s1.1 2.5 2.5 2.5z"/><path fill="#862165" d="M52 23.1l3-.5V42h-5l2-18.9zm7.8.1L58 42h5V22.6l-3.2.6zM43 42h5V28h-2.1L43 42zM1 28.9c0 1.7.7 5.6 7.3 6.1.6 0 3 .1 3 1.5 0 1.2-2.4 1.8-4.4 1.8-2.3 0-4-.6-6-1.1v4.6c2 .5 4.4.8 7.1.8 5.7 0 8.3-3.2 8.3-6.4 0-3.6-2.8-5.9-7.6-6.3-.7 0-2.1-.1-2.1-1.5 0-1.6 2.2-1.6 3-1.6 1.4 0 3.3.4 4.6.8l1.5.5h.2v-4.5l-.2-.1c-1.6-.5-3.5-1.1-6.8-1.1M33 34v8h5v-6.3c0-2.5 0-3.6 3-3.7v-4.2c0-.1-1.1-.1-1.1-.1M18 42h5v-5.4c2 2.3 4.3 5.4 4.3 5.4h4.4c-.6-2-3.4-7.2-3.4-7.2 2.5-3.1 3.6-6.8 3.7-6.8h-3c-.1 0-4 2.5-6 4.9V23m22.5 3.5c1.4 0 2.5-1.1 2.5-2.5s-1.1-2.5-2.5-2.5"/><metadata><rdf:RDF xmlns:rdf="http://www.w3.org/1999/02/22-rdf-syntax-ns#" xmlns:rdfs="http://www.w3.org/2000/01/rdf-schema#" xmlns:dc="http://purl.org/dc/elements/1.1/"><rdf:Description about="https://iconscout.com/legal#licenses" dc:title="skrill" dc:description="skrill" dc:publisher="Iconscout" dc:date="2018-01-30" dc:format="image/svg+xml" dc:language="en"><dc:creator><rdf:Bag><rdf:li>Roundicons.com</rdf:li></rdf:Bag></dc:creator></rdf:Description></rdf:RDF></metadata></svg>