<?xml version="1.0" encoding="UTF-8"?><!DOCTYPE svg PUBLIC "-//W3C//DTD SVG 1.1//EN" "http://www.w3.org/Graphics/SVG/1.1/DTD/svg11.dtd"><svg xmlns="http://www.w3.org/2000/svg" xmlns:xlink="http://www.w3.org/1999/xlink" version="1.1" id="Layer_1" x="0px" y="0px" width="64px" height="64px" viewBox="0 0 64 64" xml:space="preserve"><path fill-rule="evenodd" clip-rule="evenodd" fill="#14A0EF" d="M1 26.4c1-.1 2.2 0 3.3 0l1.2 6.3c.7-2 1.2-4.2 1.8-6.3h3.2c.6 2.1 1.2 4.2 1.7 6.3.5-2 .8-4.2 1.2-6.3h3.3c-.9 3.8-1.7 7.6-2.5 11.4h-3.4c-.6-2.3-1.4-4.6-2-6.8-.7 2.2-1.3 4.6-2.1 6.8H3.3c-.6-3.9-1.4-7.7-2.3-11.4z"/><path fill-rule="evenodd" clip-rule="evenodd" fill="#1B7EC1" d="M2.3 26.4c1-.1 1 0 2 0l1.2 6.3c.7-2 1.2-4.2 1.8-6.3h3.2c.6 2.1 1.2 4.2 1.7 6.3.5-2 .8-4.2 1.2-6.3h3.3c-.9 3.8-1.7 7.6-2.5 11.4h-3.4c-.6-2.3-1.4-4.6-2-6.8-.7 2.2-1.3 4.6-2.1 6.8H3.3c-.6-3.9-.2-7.7-1-11.4z"/><path fill-rule="evenodd" clip-rule="evenodd" fill="#14A0EF" d="M23.2 26.3h1c3.9.2 5.8 2.4 5.6 6.7h-8c0 1.7 1.4 2.7 2.9 2.1.7-.3 1-.8 1-.8l3.8.4c0 .2-.1.4-.3.6-1 1.4-2.5 2.4-4.9 2.4h-1.1c-3.2-.1-5.3-2-5.5-5.1-.2-3.8 2-6 5.5-6.3zm-.7 3c-.4.4-.6 1-.7 1.8h4c.1-1.9-2-3-3.3-1.8z"/><path fill-rule="evenodd" clip-rule="evenodd" fill="#14A0EF" d="M31.8 26.4s6.4-.6 8.2.5c.9.6 1.3 1.6 1.3 2.9 0 3.1-2.5 3.9-6 3.6v4.1h-3.5V26.4zm6.2 3.5c0-1.2-1.3-1.4-2.6-1.3-.1.8 0 1.7 0 2.5 1.3.2 2.6 0 2.6-1.2z"/><path fill-rule="evenodd" clip-rule="evenodd" fill="#14A0EF" d="M44.6 26.4h3.8l4.2 11.2H49l-.5-1.8h-4l-.6 1.8h-3.5l4.2-11.2zm.6 7h2.5l-1.3-4.1-1.2 4.1z"/><path fill-rule="evenodd" clip-rule="evenodd" fill="#14A0EF" d="M50.9 26.5l3.8-.1 2.3 3.8 2.3-3.8H63l-4.2 6.5v4.7h-3.5V33z"/><g><path fill-rule="evenodd" clip-rule="evenodd" fill="#1B7EC1" d="M29.5 34.7c0 .2-.1.4-.3.6-1 1.4-2.5 2.4-4.9 2.4h-1.1c-3.2-.1-4.3-2-4.5-5.1-.3-3.9 1-6.1 4.5-6.3h1c3.9.2 5.8 2.4 5.6 6.7h-8c0 1.7 1.4 2.7 2.9 2.1m-2.2-5.8c-.4.4-.6 1-.7 1.8h4.9c.2-1.9-2.9-3-4.2-1.8z"/><path fill-rule="evenodd" clip-rule="evenodd" fill="#1B7EC1" d="M31.8 26.4s6.4-.6 8.2.5c.9.6 1.3 1.6 1.3 2.9 0 3.1-2.5 3.9-6 3.6v4.1h-2.5l-1-11.1zm7.2 3.5c0-1.2-2.2-1.4-3.6-1.3-.1.8 0 1.7 0 2.5 1.3.2 3.6 0 3.6-1.2z"/><path fill-rule="evenodd" clip-rule="evenodd" fill="#1B7EC1" d="M44.6 26.4h3.8l4.2 11.2h-2.7l-1.5-1.8h-4l-.6 1.8h-2.5l3.3-11.2zm.6 7h3.4l-2.2-4.1-1.2 4.1z"/><path fill-rule="evenodd" clip-rule="evenodd" fill="#1B7EC1" d="M50.9 26.5l3.8-.1 2.3 3.8 2.3-3.8H63l-4.2 6.5v4.7h-3.5l.9-4.6z"/></g><metadata><rdf:RDF xmlns:rdf="http://www.w3.org/1999/02/22-rdf-syntax-ns#" xmlns:rdfs="http://www.w3.org/2000/01/rdf-schema#" xmlns:dc="http://purl.org/dc/elements/1.1/"><rdf:Description about="https://iconscout.com/legal#licenses" dc:title="wepay" dc:description="wepay" dc:publisher="Iconscout" dc:date="2018-01-30" dc:format="image/svg+xml" dc:language="en"><dc:creator><rdf:Bag><rdf:li>Roundicons.com</rdf:li></rdf:Bag></dc:creator></rdf:Description></rdf:RDF></metadata></svg>